<?xml version="1.0" encoding="UTF-8"?><svg id="_レイヤー_2" xmlns="http://www.w3.org/2000/svg" xmlns:xlink="http://www.w3.org/1999/xlink" viewBox="0 0 204.91 48.12"><defs><style>.cls-1{fill:#fff;}.cls-2,.cls-3,.cls-4{fill:none;}.cls-3{clip-path:url(#clippath);}.cls-4{clip-path:url(#clippath-1);}</style><clipPath id="clippath"><rect class="cls-2" width="204.91" height="48.12"/></clipPath><clipPath id="clippath-1"><rect class="cls-2" width="204.91" height="48.12"/></clipPath></defs><g id="_レイヤー_1-2"><g id="_アートワーク_2"><g class="cls-3"><g class="cls-4"><path class="cls-1" d="m203.19,24.09l-5.09,2.71c-.8-1.64-1.79-2.46-2.98-2.46-.57,0-1.05.19-1.45.57-.4.36-.6.84-.6,1.42,0,1.02,1.18,2.03,3.55,3.04,3.26,1.4,5.46,2.7,6.59,3.88,1.13,1.19,1.7,2.78,1.7,4.79,0,2.57-.95,4.72-2.84,6.45-1.84,1.64-4.07,2.46-6.67,2.46-4.47,0-7.63-2.18-9.49-6.54l5.25-2.43c.73,1.28,1.29,2.09,1.67,2.43.75.69,1.64,1.04,2.68,1.04,2.08,0,3.12-.95,3.12-2.84,0-1.09-.8-2.12-2.41-3.06-.62-.31-1.24-.61-1.86-.9-.62-.29-1.25-.59-1.89-.9-1.79-.88-3.05-1.75-3.77-2.62-.93-1.11-1.39-2.54-1.39-4.29,0-2.32.79-4.23,2.38-5.74,1.62-1.51,3.59-2.27,5.91-2.27,3.41,0,5.94,1.76,7.6,5.28m-39.84-4.54v15.28c0,4.41,1.74,6.62,5.22,6.62s5.22-2.21,5.22-6.62v-15.28h6.15v15.42c0,2.13-.26,3.97-.79,5.52-.51,1.38-1.39,2.63-2.65,3.75-2.08,1.8-4.72,2.71-7.93,2.71s-5.82-.9-7.9-2.71c-1.28-1.11-2.18-2.36-2.71-3.75-.51-1.24-.77-3.08-.77-5.52v-15.42h6.15Zm-18.95,13.51c0-2.55-.69-4.63-2.08-6.23-1.4-1.64-3.16-2.46-5.28-2.46-2.26,0-4.1.79-5.52,2.38-1.4,1.57-2.1,3.61-2.1,6.12s.69,4.66,2.08,6.21c1.39,1.59,3.21,2.38,5.47,2.38,2.13,0,3.9-.79,5.31-2.38,1.42-1.6,2.13-3.61,2.13-6.02M129.77,0v22.64c2.46-2.55,5.25-3.83,8.37-3.83,3.59,0,6.58,1.34,8.97,4.02,2.39,2.66,3.58,5.98,3.58,9.95s-1.2,7.49-3.61,10.17c-2.39,2.66-5.4,3.99-9.05,3.99-3.08,0-5.83-1.18-8.26-3.56v2.79h-6.15V0h6.15Zm-21.03,8.48c0-1.08.39-2.01,1.18-2.79.78-.78,1.72-1.18,2.82-1.18s2.06.39,2.84,1.18c.78.77,1.18,1.7,1.18,2.82s-.39,2.06-1.18,2.84c-.77.78-1.7,1.18-2.82,1.18s-2.06-.39-2.84-1.18c-.78-.78-1.18-1.74-1.18-2.87m7.08,37.71h-6.15v-26.63h6.15v26.63Zm-27.97-26.63h6.15v2.38c1.13-1.18,2.13-2,3.01-2.43.89-.46,1.95-.68,3.17-.68,1.62,0,3.32.53,5.08,1.59l-2.82,5.63c-1.17-.84-2.31-1.26-3.42-1.26-3.35,0-5.03,2.53-5.03,7.6v13.81h-6.15v-26.63Zm-28.66,13.23c0,2.66.71,4.77,2.13,6.32,1.46,1.57,3.38,2.35,5.77,2.35s4.33-.78,5.77-2.32c1.44-1.55,2.16-3.62,2.16-6.21s-.72-4.66-2.16-6.21c-1.46-1.57-3.38-2.35-5.77-2.35s-4.26.78-5.71,2.35c-1.46,1.57-2.19,3.59-2.19,6.07m-6.29-.11c0-3.85,1.38-7.12,4.13-9.82,2.75-2.7,6.11-4.05,10.06-4.05s7.35,1.36,10.12,4.07c2.73,2.72,4.1,6.05,4.1,10.01s-1.38,7.34-4.13,10.03c-2.77,2.68-6.17,4.02-10.2,4.02s-7.34-1.37-10.03-4.1c-2.7-2.7-4.05-6.09-4.05-10.17M0,46.18L8.89.79l14.49,32.81L38.39.79l7.98,45.39h-6.53l-4.07-25.48-12.5,27.42-12.14-27.45-4.54,25.51H0Z"/></g></g></g></g></svg>