<svg width="206" height="49" viewBox="0 0 206 49" fill="none" xmlns="http://www.w3.org/2000/svg">
<path d="M0.582031 47L9.46875 1.60938L23.9609 34.4219L38.9727 1.60938L46.957 47H40.4219L36.3477 21.5156L23.8516 48.9414L11.7109 21.4883L7.17188 47H0.582031ZM53.4922 33.4922C53.4922 29.6458 54.8685 26.3737 57.6211 23.6758C60.3737 20.9779 63.7279 19.6289 67.6836 19.6289C71.6576 19.6289 75.0299 20.987 77.8008 23.7031C80.5352 26.4193 81.9023 29.7552 81.9023 33.7109C81.9023 37.7031 80.526 41.0482 77.7734 43.7461C75.0026 46.4258 71.6029 47.7656 67.5742 47.7656C63.582 47.7656 60.237 46.3984 57.5391 43.6641C54.8411 40.9661 53.4922 37.5755 53.4922 33.4922ZM59.7812 33.6016C59.7812 36.263 60.4922 38.3685 61.9141 39.918C63.3724 41.4857 65.2956 42.2695 67.6836 42.2695C70.0898 42.2695 72.013 41.4948 73.4531 39.9453C74.8932 38.3958 75.6133 36.3268 75.6133 33.7383C75.6133 31.1497 74.8932 29.0807 73.4531 27.5312C71.9948 25.9635 70.0716 25.1797 67.6836 25.1797C65.332 25.1797 63.4271 25.9635 61.9688 27.5312C60.5104 29.099 59.7812 31.1224 59.7812 33.6016ZM88.4375 20.3672H94.5898V22.7461C95.7201 21.5612 96.7227 20.75 97.5977 20.3125C98.4909 19.8568 99.5482 19.6289 100.77 19.6289C102.392 19.6289 104.087 20.1576 105.855 21.2148L103.039 26.8477C101.872 26.0091 100.733 25.5898 99.6211 25.5898C96.2669 25.5898 94.5898 28.1237 94.5898 33.1914V47H88.4375V20.3672ZM116.41 20.3672V47H110.258V20.3672H116.41ZM109.328 9.29297C109.328 8.21745 109.72 7.28776 110.504 6.50391C111.288 5.72005 112.227 5.32812 113.32 5.32812C114.432 5.32812 115.38 5.72005 116.164 6.50391C116.948 7.26953 117.34 8.20833 117.34 9.32031C117.34 10.4323 116.948 11.3802 116.164 12.1641C115.398 12.9479 114.46 13.3398 113.348 13.3398C112.236 13.3398 111.288 12.9479 110.504 12.1641C109.72 11.3802 109.328 10.4232 109.328 9.29297ZM130.355 0.816406V23.457C132.816 20.9049 135.605 19.6289 138.723 19.6289C142.314 19.6289 145.303 20.9688 147.691 23.6484C150.079 26.3099 151.273 29.6276 151.273 33.6016C151.273 37.7031 150.07 41.0938 147.664 43.7734C145.276 46.4349 142.259 47.7656 138.613 47.7656C135.533 47.7656 132.78 46.5807 130.355 44.2109V47H124.203V0.816406H130.355ZM144.984 33.875C144.984 31.3229 144.292 29.2448 142.906 27.6406C141.503 26 139.743 25.1797 137.629 25.1797C135.368 25.1797 133.527 25.9727 132.105 27.5586C130.702 29.1263 130 31.168 130 33.6836C130 36.2721 130.693 38.3411 132.078 39.8906C133.464 41.4766 135.286 42.2695 137.547 42.2695C139.68 42.2695 141.448 41.4766 142.852 39.8906C144.273 38.2865 144.984 36.2812 144.984 33.875ZM163.934 20.3672V35.6523C163.934 40.0638 165.674 42.2695 169.156 42.2695C172.638 42.2695 174.379 40.0638 174.379 35.6523V20.3672H180.531V35.7891C180.531 37.9219 180.267 39.763 179.738 41.3125C179.228 42.6979 178.344 43.9466 177.086 45.0586C175.008 46.8633 172.365 47.7656 169.156 47.7656C165.966 47.7656 163.332 46.8633 161.254 45.0586C159.978 43.9466 159.076 42.6979 158.547 41.3125C158.036 40.0729 157.781 38.2318 157.781 35.7891V20.3672H163.934ZM203.773 24.9062L198.688 27.6133C197.885 25.9727 196.892 25.1523 195.707 25.1523C195.142 25.1523 194.659 25.3438 194.258 25.7266C193.857 26.0911 193.656 26.5651 193.656 27.1484C193.656 28.1693 194.841 29.181 197.211 30.1836C200.474 31.5872 202.671 32.8815 203.801 34.0664C204.931 35.2513 205.496 36.8464 205.496 38.8516C205.496 41.4219 204.548 43.5729 202.652 45.3047C200.811 46.9453 198.587 47.7656 195.98 47.7656C191.514 47.7656 188.352 45.5872 186.492 41.2305L191.742 38.7969C192.471 40.0729 193.027 40.8841 193.41 41.2305C194.158 41.9232 195.051 42.2695 196.09 42.2695C198.168 42.2695 199.207 41.3216 199.207 39.4258C199.207 38.332 198.405 37.3112 196.801 36.3633C196.181 36.0534 195.561 35.7526 194.941 35.4609C194.322 35.1693 193.693 34.8685 193.055 34.5586C191.268 33.6836 190.01 32.8086 189.281 31.9336C188.352 30.8216 187.887 29.3906 187.887 27.6406C187.887 25.3255 188.68 23.4115 190.266 21.8984C191.888 20.3854 193.857 19.6289 196.172 19.6289C199.581 19.6289 202.115 21.388 203.773 24.9062Z" fill="#283250"/>
</svg>
