<?xml version="1.0" encoding="UTF-8"?><svg id="_レイヤー_2" xmlns="http://www.w3.org/2000/svg" width="236.5" height="96.4" viewBox="0 0 236.5 96.4"><defs><style>.cls-1{fill:#ff3b36;stroke:#ff3b36;stroke-miterlimit:10;stroke-width:.4px;}</style></defs><g id="design"><g><g><path d="m236.45,32.12c-.09-.16-.22-.22-.28-.22-.07,0-.16.09-.19.16-.25.45-.94,1.39-1.72,2.11-1,.93-4.09,3.8-10.91,3.62-3.34-.09-5.14-3.84-6.11-5.86-.15-.31-.43-.89-.54-1.11.17-.43.4-1.38,1.79-2.44.24-.16.55-.26.94-.26,1.27,0,2.95.91,3.52,1.32.1.07.24.15.38.15.12,0,.24-.05.34-.13.2-.18.65-.94.95-1.76.28-.79.43-1.46.45-1.59.03-.17,0-.4-.34-.52-.24-.1-2.01-.41-4.04-.34-1.96.08-3.05,1.57-3.58,2.29l-.11.16c-.4.51-.8,1.24-1.05,1.79-.42-.74-1.4-2.41-2.2-3.19-.84-.83-1.86-.9-3-.9h-2.64c-.07,0-.13.05-.16.1,0,.03-1.71,3.08-3.15,4.75l-.2.23c-1.75,2.04-6.4,7.46-15.47,7.46-.33,0-.54-.08-.58-.19-.03-.09.02-.21.1-.28,3.15-2.59,4.6-5.34,4.32-8.17-.33-3.35-3.47-4.86-6.43-4.86-.57,0-1.18.05-1.81.15-5.2.77-7.13,3.42-9.17,6.22l-.27.38c-1.65,2.26-6.41,7.49-15.15,7.49h0c-.97,0-1.97-.07-2.98-.19-.21-.03-.37-.15-.41-.33-.03-.13.02-.26.14-.34,4-2.64,5.42-6.17,5.42-8.6s-1.22-5.13-4.67-5.13c-1.76,0-2.47.71-3.21,1.47l-.18.18c-.83.83-1.04,1.19-1.13,1.35-.12.18-.21.31-.07.51.13.18.19.23.28.23.04,0,.08,0,.12-.02.1-.02.24-.08.43-.26.08-.08.17-.18.26-.25.7-.53,1.26-.66,1.8-.66.63.01,2.1.42,2.26,4.05.08,1.75-.32,3.42-1.15,4.68-.75,1.16-1.77,1.85-2.78,1.9-.84.03-1.41-.51-1.72-1.6-.26-.94-.26-2.02-.26-2.48v-16.42c0-9.47,1.29-14.64,3.73-14.95.58-.07,1.01.11,1.36.55,1.1,1.41.9,5.29.16,8.22-1.37,5.38-4.23,10-4.26,10.04-.1.15-.32.49-.11.74.09.1.13.15.17.19.08.08.15.09.21.09.08,0,.16-.04.23-.12.03-.04,3.28-3.78,5.62-8.33,2.76-5.35,3.5-9.17,2.18-11.34-.84-1.38-2.54-2.01-4.83-1.8-3.93.37-6.97,5.61-7.8,7.59-.89,2.11-1.46,5.43-1.46,8.46v17.68c0,2.45.88,3.99,2.94,5.14,1.45.81,4.52,1.34,7.82,1.34,1.81,0,3.6-.16,5.33-.45,4.85-.82,8.88-3.16,11.96-6.93.15-.19.3-.27.39-.27.1,0,.12.18.12.28.1,1.57.8,4.42,4.33,5.99,1.6.71,3.63,1.07,6.05,1.07,2.97,0,5.79-.56,7.21-.89,3.9-.91,9.62-3.64,14.74-11.45.11-.15.31-.32.54,0h0c.37.5,1.07,1.55,2.02,3.17.76,1.29,1.65,2.89,1.73,3.12.1.19-.01.42-.15.69-.16.29-.71,1.19-1.05,1.57-.56.63-1.18.89-1.96.81-1.05-.1-1.67-.18-1.94-.23-.32-.05-.52,0-.74.21-.15.13-.5.49-.92.9l-.32.32c-.32.31-.7.74-1.13,1.28l-.03.05c-.05.07-.07.15-.05.22.05.16.22.22.54.31.17.04.83.14,1.76.14.8,0,1.57-.08,2.31-.22,1.96-.42,3.25-2.4,3.85-3.28h0c.71-1.24.57-1,.71-1.24.68,1.5,2.19,4.58,8.21,4.58h.17c6.67-.06,12.33-3.69,14.12-6.68.32-.53.51-.98.37-1.22Zm-48.68,2.59c-.53,1.53-1.67,2.42-3.15,2.42-.5,0-1.05-.11-1.62-.31-2.41-.86-2.82-6.07-2.24-7.93.46-1.48,1.25-2.37,2.36-2.66.33-.09.65-.13.96-.13,1.65,0,2.75,1.23,3.24,2.37.67,1.63,1.04,4.47.45,6.23Z"/><path d="m72.28,15.99h.03c1.68-.01,2.94-1.39,2.92-3.19-.01-1.58-1.27-2.73-2.98-2.73-1.71.02-2.79,1.11-2.77,2.77.02,1.86,1.16,3.15,2.8,3.15Z"/><path d="m146.23,30.12c-.11,0-.21.07-.32.19-6.72,7.64-12.33,7.68-16.05,7.71h-.07c-4.44,0-7.42-2.75-7.97-5.34-.77-3.7.38-5.09.91-5.52.5-.4,1.18-.63,1.88-.63.46,0,.88.1,1.21.28.77.43.94,1.64.82,2.37-.11.61-.51,1.15-1.26,1.69-.71.52-2.07,1.52-2.3,1.66-.23.15-.34.46-.3.67.08.3.34.34.7.18.21-.09.7-.34,1.51-.74.47-.23,1.05-.52,1.71-.84,1.52-.75,4.01-2.38,3.68-4.93-.22-1.67-1.71-2.68-4-2.68-.53,0-1.08.06-1.63.17-1.87.37-5.26,1.49-6.95,4.88-1.29,2.6-.67,5.11-.47,5.75-.83.48-5.49,3.05-10.29,3.05h-.13c-2.11-.02-7.1-.63-7.98-5.89-.5-3,.64-4.94,1.6-5.36.32-.14.69-.22,1.05-.22.87,0,1.57.4,1.92,1.11.53,1.04.02,1.98-.15,2.29-.02.04-.03.06-.04.07-.17.37-.1.64,0,.79.22.37.77.58,1.71.62,1.47.09,2.53-.35,2.9-1.16.45-.97.82-3.22-.94-4.71-.82-.67-1.98-1.02-3.49-1.02-1.17,0-2.58.22-3.75.61-1.81.59-3.38,2.08-3.94,2.88-.15.21-.3.49-.48.81-.51.91-1.28,2.25-2.78,3.79-3.52,3.58-6.91,5.45-10.81,5.57-4.96.15-6.19-3.65-6.58-6.95-.33-2.76-.12-4.42-.04-4.97.08-.62.39-1.01.56-1.14.32-.25.47-.55.41-.88-.03-.13-.08-.38-.08-.38-.02-.08-.1-.15-.19-.15-.08,0-.59.04-2.85.74-1.85.59-2.79.95-2.99,1.04-.22.12-.78.54-1.11,1.97-.39,1.63-.97,3.08-1.74,4.31-.42.68-4.37,6.61-13.8,6.61-1.09,0-2.54-.07-3.69-.23-.46-.05-.34-.45-.16-.58,3.32-2.25,4.7-4.55,5.02-6.08.72-3.43-.61-6.35-2.21-7.37-.67-.43-1.5-.66-2.38-.66-1.1,0-2.23.37-3.16,1.04-1.8,1.28-2.45,2.67-2.48,2.97-.03.29-.04.46.09.61.06.06.14.1.22.1.28,0,.43-.21.84-.61.38-.39.88-.87,2.07-.87s2.53.35,2.93,3.11c.41,2.85-.74,5.66-2.1,6.75-.94.76-1.94.93-2.61.93-.4,0-.81-.07-1.08-.17-.49-.17-.99-.46-1.19-.58v-11.32c0-.83.37-1.75.61-2.02.34-.36.4-.56.28-.91-.03-.08-.07-.21-.07-.21-.04-.1-.16-.14-.25-.11-.02,0-.54.11-2.27.8-.34.13-1.47.61-1.86.81-1.17.57-1.48.89-1.65,1.44-.03.09-.05.25-.11.46-.28,1.29-1.01,4.74-3.69,8.41-3.25,4.46-8.09,5.4-11.59,5.4-.13,0-.27,0-.41,0-.4,0-.33-.33-.12-.46.82-.53,2.73-1.74,3.46-3.7.88-2.37-.31-4.6-1.82-7.07-1.49-2.42-2.82-4.29-3.19-4.81-.16-.21-.37-.32-.46-.38-.08-.04-.54-.17-1.37-.38-.09-.03-.19.02-.22.11-3.09,6.56-7.5,9.33-8.96,10.25-2.37,1.48-6.17,3.06-8.57,3.06-1.02,0-1.24.1-1.17,1.48.09,1.68.42,1.79,1.11,1.79,1.18,0,3.9-.59,8.9-4.5,4.66-3.66,6.28-5.38,6.72-5.88.7.62,3.67,3.26,5.16,4.74.92.93,1.07,1.8.97,2.59-.08.75-.56,1.46-1.28,1.9-.46.28-1.06.43-1.69.43-.94,0-2.05-.39-2.67-1.7-.29-.62-.45-1.15-.57-1.58-.2-.69-.35-1.13-.92-1.27-.5-.11-1.02.06-1.63.67-.44.45-.7.95-.54,1.72.14.7,1.14,4.22,7.1,4.49.64.03,1.21.04,1.74.04,4.94,0,11.14-1.18,15.64-10.2h0c.12-.28.45-.22.45.16v2.19c0,5.66-.01,17.58-.01,20.07s-.34,3.06-.88,3.74c-.59.73-.87.79-1.27.86-.07.01-.2.04-.26.16-.06.12,0,.23.04.34l.02.05c.12.25.29.39.36.43.1.06.17.08.26.08h.09c.4-.03,3.77-.29,5.2-2.03,1.4-1.68,1.39-4.22,1.38-5.75v-12.45s0-.03,0-.04c0,0,.02,0,.03,0,3.61.94,6.76,1.4,9.63,1.4,6.93,0,12.1-2.71,15.85-8.26h0c.21-.31.67-.67.76,0,0,.01,0,.03.01.04.59,5.5,2.76,7.65,8.15,8.16.46.05.94.07,1.42.07,5.36,0,11.13-2.75,14.77-7h0c.2-.21.54-.32.62.14,0,.02,0,.02,0,.02.81,4.68,3.92,7.06,9.23,7.06.69,0,1.32-.03,1.86-.08,2.87-.19,7.4-1.31,11.52-3.85.19-.12.32-.17.4-.17.1,0,.18.08.37.35,1.77,2.6,4.97,3.97,9.24,3.97.18,0,.34,0,.48,0h.22c8.25,0,15.61-5.12,18.21-8.75.28-.39.37-.65.37-1.08,0-.51-.22-.6-.35-.6Z"/></g><g><path class="cls-1" d="m57.47,95.62c-.6.39-1.27.57-2.04.57-1.92,0-3.3-1.33-3.3-3.19s1.47-3.3,3.44-3.3c.72,0,1.32.19,1.98.63l-.36.55c-.59-.4-1.04-.55-1.66-.55-1.45,0-2.44,1.04-2.44,2.58s1.05,2.66,2.5,2.66c.57,0,1.08-.15,1.54-.46l.33.51Z"/><path class="cls-1" d="m58.59,92.88c0-1.86,1.33-3.18,3.18-3.18s3.1,1.36,3.1,3.17-1.22,3.33-3.14,3.33-3.14-1.47-3.14-3.32Zm5.32.09c0-1.59-.87-2.64-2.22-2.64-1.45,0-2.14,1.32-2.14,2.62s.7,2.62,2.18,2.62c1.29,0,2.18-1.05,2.18-2.6Z"/><path class="cls-1" d="m72.44,96.09v-3.65c0-.3.03-1.01.05-1.58-.18.48-.4,1.01-.59,1.39l-1.87,3.84h-.41l-1.78-3.84c-.13-.29-.37-.91-.56-1.39.03.48.05,1.23.05,1.58v3.65h-.71v-6.28h.92l2.35,5.12,2.52-5.12h.88v6.28h-.87Z"/><path class="cls-1" d="m81.21,96.09v-3.65c0-.3.03-1.01.05-1.58-.18.48-.4,1.01-.59,1.39l-1.87,3.84h-.41l-1.78-3.84c-.13-.29-.37-.91-.56-1.39.03.48.05,1.23.05,1.58v3.65h-.71v-6.28h.92l2.35,5.12,2.52-5.12h.88v6.28h-.87Z"/><path class="cls-1" d="m88.13,89.81h.81v3.56c0,1.13-.1,1.53-.49,2.02-.45.54-1.09.81-1.96.81-.99,0-1.74-.39-2.12-1.08-.22-.41-.28-.77-.28-1.82v-3.49h.87v3.51c0,1,.07,1.35.35,1.71.26.35.69.54,1.22.54.69,0,1.21-.31,1.44-.87.13-.31.16-.52.16-1.4v-3.49Z"/><path class="cls-1" d="m95.37,96.09l-3.73-4.89v4.89h-.71v-6.28h.56l3.78,4.92v-4.92h.72v6.28h-.61Z"/><path class="cls-1" d="m98.07,96.09v-6.28h.87v6.28h-.87Z"/><path class="cls-1" d="m106.05,95.62c-.6.39-1.27.57-2.04.57-1.92,0-3.3-1.33-3.3-3.19s1.47-3.3,3.44-3.3c.72,0,1.32.19,1.98.63l-.36.55c-.59-.4-1.04-.55-1.66-.55-1.45,0-2.44,1.04-2.44,2.58s1.05,2.66,2.5,2.66c.57,0,1.08-.15,1.54-.46l.33.51Z"/><path class="cls-1" d="m111.72,96.09l-.64-1.84h-2.45l-.68,1.84h-.78l2.58-6.28h.57l2.35,6.28h-.95Zm-1.81-5.17l-1.04,2.7h2l-.96-2.7Z"/><path class="cls-1" d="m114.75,96.09v-5.65h-2v-.63h4.89v.63h-2.01v5.65h-.88Z"/><path class="cls-1" d="m119.01,96.09v-6.28h.87v6.28h-.87Z"/><path class="cls-1" d="m121.65,92.88c0-1.86,1.33-3.18,3.18-3.18s3.1,1.36,3.1,3.17-1.22,3.33-3.14,3.33-3.14-1.47-3.14-3.32Zm5.32.09c0-1.59-.87-2.64-2.22-2.64-1.45,0-2.14,1.32-2.14,2.62s.7,2.62,2.18,2.62c1.29,0,2.18-1.05,2.18-2.6Z"/><path class="cls-1" d="m134.14,96.09l-3.73-4.89v4.89h-.71v-6.28h.56l3.78,4.92v-4.92h.72v6.28h-.61Z"/><path class="cls-1" d="m144.79,95.62c-.6.39-1.27.57-2.04.57-1.92,0-3.3-1.33-3.3-3.19s1.47-3.3,3.44-3.3c.72,0,1.32.19,1.98.63l-.36.55c-.59-.4-1.04-.55-1.66-.55-1.45,0-2.44,1.04-2.44,2.58s1.05,2.66,2.5,2.66c.57,0,1.08-.15,1.54-.46l.33.51Z"/><path class="cls-1" d="m145.92,92.88c0-1.86,1.33-3.18,3.18-3.18s3.1,1.36,3.1,3.17-1.22,3.33-3.14,3.33-3.14-1.47-3.14-3.32Zm5.32.09c0-1.59-.87-2.64-2.22-2.64-1.45,0-2.14,1.32-2.14,2.62s.7,2.62,2.18,2.62c1.29,0,2.18-1.05,2.18-2.6Z"/><path class="cls-1" d="m159.77,96.09v-3.65c0-.3.03-1.01.05-1.58-.18.48-.4,1.01-.59,1.39l-1.87,3.84h-.41l-1.78-3.84c-.13-.29-.37-.91-.56-1.39.03.48.05,1.23.05,1.58v3.65h-.71v-6.28h.92l2.35,5.12,2.52-5.12h.88v6.28h-.87Z"/><path class="cls-1" d="m162.73,96.09v-6.28h1.29c.94,0,1.28.07,1.68.31.48.31.75.82.75,1.43,0,1.22-.97,2.05-2.42,2.08v-.57c.48-.03.74-.1.98-.26.34-.23.52-.64.52-1.14s-.2-.9-.57-1.08c-.22-.11-.46-.15-.96-.15h-.4v5.65h-.87Z"/><path class="cls-1" d="m171.49,96.09l-.64-1.84h-2.45l-.68,1.84h-.78l2.58-6.28h.57l2.35,6.28h-.95Zm-1.81-5.17l-1.04,2.7h2l-.96-2.7Z"/><path class="cls-1" d="m178.21,96.09l-3.73-4.89v4.89h-.71v-6.28h.56l3.78,4.92v-4.92h.72v6.28h-.61Z"/><path class="cls-1" d="m182.02,96.09v-2.72l-1.89-3.46.89-.18,1.52,3.11,1.71-3.11.78.12-2.14,3.53v2.72h-.87Z"/></g></g></g></svg>